PathFileType  4	(X/Y/Z) C:\Users\antoi\Documents\MyRepositories\mobilecap\ResultsAnalysis
DataRate	CameraRate	NumFrames	NumMarkers	Units	OrigDataRate	OrigDataStartFrame	OrigNumFrames
100.0	100.0	4	51	mm	100.0	120	136
Frame#	Time	r_knee			r_shank_antsup			r_ankle			r_calc			r_5meta			r_toe			L_knee			L_shank_antsup			L_ankle			L_calc			L_5meta			L_toe			r_sh2			r_sh3			r_sh4			L_sh2			L_sh3			r_thigh1			r_thigh2			r_thigh3			r_thigh4			r_thigh5			L_thigh1			L_thigh2			L_thigh3			L_thigh4			r.ASIS			r.PSIS			L.ASIS			L.PSIS			C7			R_Shoulder			L_Shoulder			R_Sternum			L_Sternum			R_humerus			R_elbow_med			R_elbow_lat			R_forearm			R_wrist_radius			R_wrist_ulna			L_humerus			L_elbow_med			L_elbow_lat			L_forearm			L_wrist_radius			L_wrist_ulna			R_HJC			L_HJC			R_HJC_reg			L_HJC_reg			
		X1	Y1	Z1	X2	Y2	Z2	X3	Y3	Z3	X4	Y4	Z4	X5	Y5	Z5	X6	Y6	Z6	X7	Y7	Z7	X8	Y8	Z8	X9	Y9	Z9	X10	Y10	Z10	X11	Y11	Z11	X12	Y12	Z12	X13	Y13	Z13	X14	Y14	Z14	X15	Y15	Z15	X16	Y16	Z16	X17	Y17	Z17	X18	Y18	Z18	X19	Y19	Z19	X20	Y20	Z20	X21	Y21	Z21	X22	Y22	Z22	X23	Y23	Z23	X24	Y24	Z24	X25	Y25	Z25	X26	Y26	Z26	X27	Y27	Z27	X28	Y28	Z28	X29	Y29	Z29	X30	Y30	Z30	X31	Y31	Z31	X32	Y32	Z32	X33	Y33	Z33	X34	Y34	Z34	X35	Y35	Z35	X36	Y36	Z36	X37	Y37	Z37	X38	Y38	Z38	X39	Y39	Z39	X40	Y40	Z40	X41	Y41	Z41	X42	Y42	Z42	X43	Y43	Z43	X44	Y44	Z44	X45	Y45	Z45	X46	Y46	Z46	X47	Y47	Z47	X48	Y48	Z48	X49	Y49	Z49	X50	Y50	Z50	X51	Y51	Z51	

120	1.19000000	1433.80748	522.05893	-52.63206	1477.01343	453.17390	-49.56757	1519.59957	94.57345	-82.45550	1461.18891	49.48823	-125.00328	1671.56849	39.84707	-62.91711	1700.72886	76.59949	-119.69174	1230.02214	513.71993	-339.64567	1184.03631	395.32261	-348.06121	941.52514	167.91773	-302.09526	857.71566	168.34553	-263.86250	1054.02795	50.44797	-257.84552	1033.24832	30.56191	-324.40270	1506.76481	344.24153	-47.18995	1408.71233	434.01815	-19.56511	1427.97740	320.82678	-28.23087	1118.26259	458.31942	-356.52434	1043.59292	363.38453	-350.06020	1436.58721	845.97562	-22.95690	1468.58921	740.52374	-37.05047	1424.16518	698.81879	-5.22917	1329.32999	809.33788	-11.56894	1367.50944	699.85261	-15.73147	1354.89027	824.60982	-363.48636	1348.67085	687.98362	-358.65508	1235.75715	831.82880	-361.09098	1237.73312	688.78600	-357.89237	1419.81930	1032.47777	-70.38641	1218.46315	1067.87668	-131.51981	1399.41691	1013.21935	-330.44059	1209.28924	1065.71212	-234.45024	1204.81514	1573.17055	-197.72716	1266.95920	1519.48923	-17.23060	1284.79111	1540.60754	-356.20321	1355.65190	1500.48991	-159.80819	1358.55983	1499.58472	-214.29138	1225.56618	1248.58751	68.30600	1184.45782	1162.22830	-6.80515	1195.17929	1167.00430	76.82007	1237.94964	1014.53965	102.67593	1263.08278	900.76949	99.37195	1221.36051	908.39255	113.93427	1349.11097	1299.14796	-459.85369	1325.52768	1185.60458	-415.06124	1357.17464	1207.54837	-476.00621	1505.30836	1112.71888	-465.39217	1588.96422	1066.62232	-435.29658	1570.75652	1037.87330	-457.51776	1333.79838	954.04261	-64.56304	1315.09629	939.71416	-293.71538	1344.48240	947.88348	-99.03418	1329.15912	944.27060	-270.93747	
121	1.20000000	1443.18305	523.40001	-51.22065	1485.50560	453.64341	-48.75957	1521.76786	94.30374	-82.15854	1462.08767	50.40855	-124.93179	1672.46813	37.52833	-62.95077	1702.15299	73.25105	-120.09712	1252.25531	513.54479	-341.51962	1202.77959	397.07538	-350.81989	953.55063	177.52829	-302.33954	870.66257	184.03066	-263.14307	1057.75918	52.15342	-258.00154	1034.63755	33.16590	-323.98399	1513.71638	344.30223	-46.51346	1417.50065	435.49110	-17.47778	1434.92630	322.03439	-26.21328	1138.97810	462.49081	-356.70952	1061.16568	370.19371	-349.68229	1449.14309	847.73911	-21.22489	1480.26848	742.02369	-35.48136	1435.77311	700.79376	-3.60071	1341.67319	811.90910	-9.32897	1378.58236	701.63439	-13.48775	1371.96091	825.50654	-362.48951	1368.40748	688.76548	-359.55442	1252.80362	830.57785	-359.41274	1257.52102	687.57329	-358.21078	1433.34833	1034.77606	-68.38378	1232.12340	1069.75966	-130.67162	1414.03065	1014.02426	-328.23653	1223.40543	1066.52044	-233.72026	1217.72478	1574.21680	-195.41126	1280.44835	1520.54631	-15.31660	1297.06016	1542.15187	-354.37292	1368.76081	1502.01361	-157.96945	1371.56954	1501.22178	-212.48758	1241.28116	1249.24530	70.18783	1200.11781	1162.76181	-4.59860	1211.47605	1167.43210	78.89618	1255.83654	1015.29588	104.13137	1282.05669	901.79030	100.39317	1240.32663	908.96752	115.27251	1359.63880	1299.72260	-457.55246	1335.06262	1186.53347	-412.41463	1366.55088	1208.01587	-473.56178	1512.78903	1110.41346	-463.87615	1595.79615	1062.58750	-434.56092	1576.81446	1034.18407	-456.64634	1347.32285	956.34511	-62.44019	1329.71330	940.51900	-291.57268	1358.01559	950.61193	-96.49557	1343.47642	945.21418	-268.31734	
122	1.21000000	1451.98048	524.71789	-49.88595	1493.37522	454.12595	-47.93393	1523.36829	94.10804	-82.02041	1462.78669	51.01496	-124.91461	1673.05273	35.99078	-62.97194	1702.98984	70.53387	-120.63645	1275.78628	513.19225	-343.36635	1223.20857	398.89066	-353.38944	967.27727	187.85127	-302.69576	885.69520	200.58019	-262.72785	1062.33505	54.82523	-258.13877	1036.86828	36.95179	-323.55556	1520.01911	344.38668	-45.92511	1425.62351	436.96427	-15.55991	1441.22486	323.26788	-24.37755	1161.48891	466.56346	-357.25901	1080.66337	377.01640	-349.48754	1461.65815	849.52681	-19.41915	1491.87004	743.55545	-34.03538	1447.16376	702.73851	-2.40702	1353.91818	814.53446	-7.08782	1389.61430	703.53456	-11.42945	1389.06956	826.49393	-361.73163	1388.65820	689.71603	-360.76550	1269.94322	829.00726	-357.87263	1277.88049	686.09830	-358.76666	1446.50162	1037.14278	-66.25560	1245.46286	1071.70352	-129.85421	1428.24713	1014.83857	-325.90780	1237.18053	1067.45325	-233.03585	1230.62444	1575.39749	-193.21500	1293.93329	1521.74064	-13.50007	1309.22549	1543.79760	-352.63457	1381.86961	1503.61349	-156.23018	1384.55088	1502.93238	-210.78443	1257.14674	1250.05851	72.02802	1215.87810	1163.42008	-2.35177	1227.95649	1168.02093	81.01771	1274.09470	1016.27458	105.58583	1301.48179	903.05582	101.38736	1259.75066	909.73803	116.63538	1369.95775	1300.30031	-455.26636	1344.39736	1187.59347	-409.69768	1375.71582	1208.54033	-471.06684	1519.89597	1108.06078	-462.39196	1602.17285	1058.37217	-433.97525	1582.39335	1030.37835	-455.93940	1360.40843	958.73925	-60.25054	1343.96546	941.36793	-289.35443	1371.19846	953.30308	-93.87968	1357.41044	946.23390	-265.61169	
123	1.22000000	1460.05853	525.91791	-48.64456	1500.50539	454.55508	-47.11220	1524.49264	93.96633	-82.04874	1463.29563	51.36996	-124.93684	1673.40238	35.06615	-63.02406	1703.37428	68.35210	-121.30663	1300.46973	512.73499	-345.04905	1245.19653	400.79121	-355.58904	982.71362	198.78801	-303.17383	902.90002	217.74330	-262.63175	1067.89717	58.45931	-258.27454	1040.09889	41.99078	-323.13436	1525.57114	344.42872	-45.44029	1432.91567	438.33808	-13.93603	1446.74043	324.43391	-22.89588	1185.63943	470.52081	-358.11689	1101.99036	383.81880	-349.43364	1474.07762	851.19012	-17.59868	1503.24288	744.92783	-32.70086	1458.15519	704.48202	-1.53777	1365.99246	817.14401	-4.93108	1400.48592	705.50977	-9.63369	1406.11094	827.58181	-361.21563	1409.25882	690.86123	-362.21421	1287.09677	827.14110	-356.45395	1298.66544	684.40947	-359.42240	1459.30556	1039.45727	-64.11127	1258.51180	1073.62705	-129.01585	1442.04060	1015.64033	-323.54961	1250.60405	1068.43246	-232.32387	1243.51391	1576.68886	-191.20619	1307.44308	1523.03751	-11.78298	1321.33967	1545.48340	-350.97389	1394.98154	1505.22645	-154.61130	1397.50336	1504.64521	-209.19212	1273.14865	1251.01484	73.83456	1231.75391	1164.15413	-0.10202	1244.59725	1168.75934	83.17552	1292.70051	1017.46422	107.03291	1321.34505	904.56844	102.35483	1279.60883	910.69589	118.01159	1380.05875	1300.84427	-453.01580	1353.52935	1188.75137	-406.91224	1384.65051	1209.08706	-468.52864	1526.63327	1105.65153	-460.95979	1608.10120	1054.00352	-433.52658	1587.49064	1026.49057	-455.37571	1373.12630	961.10000	-58.05871	1357.81181	942.22411	-287.12442	1384.05751	955.90463	-91.26782	1370.91857	947.28080	-262.88585	
